<mxGraphModel dx="0" dy="0" grid="1" gridSize="10" guides="1" tooltips="1" connect="1" arrows="1" fold="1" page="0" pageScale="1" background="none" math="0" shadow="0">
  <root>
    <mxCell id="0" />
    <mxCell id="1" parent="0" />
    <mxCell id="node3" parent="1" vertex="1" value="&lt;p style=&quot;margin:0px;margin-top:4px;text-align:center;&quot;&gt;&lt;b&gt;Competitor&lt;/b&gt;&lt;/p&gt;&lt;hr size=&quot;1&quot;/&gt;&lt;p style=&quot;margin:0 0 0 4px;line-height:1.6;&quot;&gt;- name: String&lt;br/&gt;+ TIME_COMPARATOR: Comparator&amp;lt;Competitor&amp;gt;&lt;br/&gt;- id: int&lt;br/&gt;- time: Double&lt;/p&gt;&lt;hr size=&quot;1&quot;/&gt;&lt;p style=&quot;margin:0 0 0 4px;line-height:1.6;&quot;&gt;+ toString(): String&lt;br/&gt;+ getName(): String&lt;br/&gt;+ getId(): int&lt;br/&gt;+ getTime(): Double&lt;br/&gt;+ getCompact(): String&lt;/p&gt;" style="verticalAlign=top;align=left;overflow=fill;fontSize=14;fontFamily=Helvetica;html=1;rounded=0;shadow=0;comic=0;labelBackgroundColor=none;strokeWidth=1;">
      <mxGeometry x="143" y="2461" width="344" height="256" as="geometry" />
    </mxCell>
    <mxCell id="node5" parent="1" vertex="1" value="&lt;p style=&quot;margin:0px;margin-top:4px;text-align:center;&quot;&gt;&lt;b&gt;Controller&lt;/b&gt;&lt;/p&gt;&lt;hr size=&quot;1&quot;/&gt;&lt;p style=&quot;margin:0 0 0 4px;line-height:1.6;&quot;&gt;- invoiceWriter: InvoiceWriter&lt;br/&gt;- fileHandler: FileHandler&lt;br/&gt;- members: Members&lt;br/&gt;- tournaments: Tournaments&lt;/p&gt;&lt;hr size=&quot;1&quot;/&gt;&lt;p style=&quot;margin:0 0 0 4px;line-height:1.6;&quot;&gt;+ loadMembers(): String&lt;br/&gt;+ sumMembershipFees(): String&lt;br/&gt;+ writeInvoices(): void&lt;br/&gt;+ depositMemberBalance(String, double): String&lt;br/&gt;+ getTournaments(): Tournaments&lt;br/&gt;+ getDisciplinesList(Member): String&lt;br/&gt;+ wipeMembers(): String&lt;br/&gt;+ runTournamentSearch(String): ArrayList&amp;lt;Tournament&amp;gt;&lt;br/&gt;+ getBalancePayment(Member): String&lt;br/&gt;+ createCompetitor(Member, double, String, String): Competitor&lt;br/&gt;+ removeMemberFromList(Member): void&lt;br/&gt;+ paidSearch(boolean): ArrayList&amp;lt;Member&amp;gt;&lt;br/&gt;+ runSearch(String): ArrayList&amp;lt;Member&amp;gt;&lt;br/&gt;+ createTournament(String, String, String, String, ArrayList&amp;lt;Competitor&amp;gt;): void&lt;br/&gt;+ loadTourneys(): String&lt;br/&gt;+ editMember(Member, String, String): String&lt;br/&gt;+ wipeTourneys(): String&lt;br/&gt;+ addMemberToList(String, int, int, String, boolean, boolean, boolean): Member&lt;br/&gt;+ getMembers(): Members&lt;br/&gt;+ saveTournament(): void&lt;br/&gt;+ addMemberToDiscipline(Member, String): String&lt;br/&gt;+ getTopDisciplinesList(String, String): String&lt;br/&gt;+ saveMembers(): void&lt;br/&gt;+ setMembershipBalanceFee(int, String, boolean, int, double): void&lt;/p&gt;" style="verticalAlign=top;align=left;overflow=fill;fontSize=14;fontFamily=Helvetica;html=1;rounded=0;shadow=0;comic=0;labelBackgroundColor=none;strokeWidth=1;">
      <mxGeometry x="469" y="937" width="462" height="712" as="geometry" />
    </mxCell>
    <mxCell id="node8" parent="1" vertex="1" value="&lt;p style=&quot;margin:0px;margin-top:4px;text-align:center;&quot;&gt;&lt;b&gt;FileHandler&lt;/b&gt;&lt;/p&gt;&lt;hr size=&quot;1&quot;/&gt;&lt;p style=&quot;margin:0 0 0 4px;line-height:1.6;&quot;&gt;- tourneyFile: File&lt;br/&gt;- memberFile: File&lt;/p&gt;&lt;hr size=&quot;1&quot;/&gt;&lt;p style=&quot;margin:0 0 0 4px;line-height:1.6;&quot;&gt;+ saveToMembersFile(Members): String&lt;br/&gt;+ saveToTournamentsFile(Tournaments): String&lt;br/&gt;+ wipeTournamentFile(): String&lt;br/&gt;+ loadTournamentFile(Tournaments): String&lt;br/&gt;+ wipeMemberFile(): String&lt;br/&gt;+ loadMembersFile(Members): String&lt;/p&gt;" style="verticalAlign=top;align=left;overflow=fill;fontSize=14;fontFamily=Helvetica;html=1;rounded=0;shadow=0;comic=0;labelBackgroundColor=none;strokeWidth=1;">
      <mxGeometry x="390" y="1709" width="330" height="232" as="geometry" />
    </mxCell>
    <mxCell id="node7" parent="1" vertex="1" value="&lt;p style=&quot;margin:0px;margin-top:4px;text-align:center;&quot;&gt;&lt;b&gt;InvoiceWriter&lt;/b&gt;&lt;/p&gt;&lt;hr size=&quot;1&quot;/&gt;&lt;p style=&quot;margin:0 0 0 4px;line-height:1.6;&quot;&gt;+ debtInvoice(Member): String&lt;/p&gt;" style="verticalAlign=top;align=left;overflow=fill;fontSize=14;fontFamily=Helvetica;html=1;rounded=0;shadow=0;comic=0;labelBackgroundColor=none;strokeWidth=1;">
      <mxGeometry x="1268" y="1709" width="222" height="68" as="geometry" />
    </mxCell>
    <mxCell id="node0" parent="1" vertex="1" value="&lt;p style=&quot;margin:0px;margin-top:4px;text-align:center;&quot;&gt;&lt;b&gt;Main&lt;/b&gt;&lt;/p&gt;&lt;hr size=&quot;1&quot;/&gt;&lt;p style=&quot;margin:0 0 0 4px;line-height:1.6;&quot;&gt;+ main(String[]): void&lt;/p&gt;" style="verticalAlign=top;align=left;overflow=fill;fontSize=14;fontFamily=Helvetica;html=1;rounded=0;shadow=0;comic=0;labelBackgroundColor=none;strokeWidth=1;">
      <mxGeometry x="618" y="-14" width="164" height="68" as="geometry" />
    </mxCell>
    <mxCell id="node6" parent="1" vertex="1" value="&lt;p style=&quot;margin:0px;margin-top:4px;text-align:center;&quot;&gt;&lt;b&gt;Member&lt;/b&gt;&lt;/p&gt;&lt;hr size=&quot;1&quot;/&gt;&lt;p style=&quot;margin:0 0 0 4px;line-height:1.6;&quot;&gt;- crawl: String&lt;br/&gt;+ ISSENIOR_COMPARATOR: Comparator&amp;lt;Member&amp;gt;&lt;br/&gt;- isActive: boolean&lt;br/&gt;- ID: int&lt;br/&gt;+ AGE_COMPARATOR: Comparator&amp;lt;Member&amp;gt;&lt;br/&gt;- seniorRate: int&lt;br/&gt;- juniorRate: int&lt;br/&gt;- breaststroke: String&lt;br/&gt;+ ISACTIVE_COMPARATOR: Comparator&amp;lt;Member&amp;gt;&lt;br/&gt;- name: String&lt;br/&gt;- backstroke: String&lt;br/&gt;+ NUMBER_COMPARATOR: Comparator&amp;lt;Member&amp;gt;&lt;br/&gt;+ MAIL_COMPARATOR: Comparator&amp;lt;Member&amp;gt;&lt;br/&gt;- age: int&lt;br/&gt;- butterfly: String&lt;br/&gt;- debt: double&lt;br/&gt;- isSenior: boolean&lt;br/&gt;- mail: String&lt;br/&gt;- passiveRate: int&lt;br/&gt;- hasPaid: boolean&lt;br/&gt;- seniorDiscount: double&lt;br/&gt;- seniorDiscountedRate: double&lt;br/&gt;- annualFee: double&lt;br/&gt;- balance: double&lt;br/&gt;+ NAME_COMPARATOR: Comparator&amp;lt;Member&amp;gt;&lt;br/&gt;- number: int&lt;br/&gt;- isCompetitive: boolean&lt;br/&gt;+ ID_COMPARATOR: Comparator&amp;lt;Member&amp;gt;&lt;br/&gt;+ ISCOMPETITIVE_COMPARATOR: Comparator&amp;lt;Member&amp;gt;&lt;/p&gt;&lt;hr size=&quot;1&quot;/&gt;&lt;p style=&quot;margin:0 0 0 4px;line-height:1.6;&quot;&gt;+ setBreaststroke(String): void&lt;br/&gt;+ getAge(): int&lt;br/&gt;+ getID(): int&lt;br/&gt;+ yearpassed(): void&lt;br/&gt;+ getDebt(): double&lt;br/&gt;+ setDebt(double): void&lt;br/&gt;+ setCompetitive(boolean): void&lt;br/&gt;+ getIsActive(): boolean&lt;br/&gt;+ setBalance(double): void&lt;br/&gt;+ getCrawl(): String&lt;br/&gt;+ setMembershipFee(boolean, int): void&lt;br/&gt;+ setBackstroke(String): void&lt;br/&gt;+ setActive(boolean): void&lt;br/&gt;+ getMail(): String&lt;br/&gt;+ setID(int): void&lt;br/&gt;+ compareTo(Object): int&lt;br/&gt;+ setAnnualFee(double): void&lt;br/&gt;+ getName(): String&lt;br/&gt;+ setName(String): void&lt;br/&gt;+ getShortDescription(): String&lt;br/&gt;+ getAnnualFee(): double&lt;br/&gt;+ setMail(String): void&lt;br/&gt;+ getIsSenior(): boolean&lt;br/&gt;+ setCrawl(String): void&lt;br/&gt;+ setSenior(boolean): void&lt;br/&gt;+ getNumber(): int&lt;br/&gt;+ getIsCompetitive(): boolean&lt;br/&gt;+ getBalance(): double&lt;br/&gt;+ setPaidStatus(boolean): void&lt;br/&gt;+ getPaidStatus(): String&lt;br/&gt;+ setButterfly(String): void&lt;br/&gt;+ toString(): String&lt;br/&gt;+ gethasPaid(): Boolean&lt;br/&gt;+ getBackstroke(): String&lt;br/&gt;+ setAge(int): void&lt;br/&gt;+ setNumber(int): void&lt;br/&gt;+ getTimeFromSTring(String): double&lt;br/&gt;+ getButterfly(): String&lt;br/&gt;+ getBreaststroke(): String&lt;br/&gt;+ getCompact(): String&lt;br/&gt;- checkpaid(): void&lt;/p&gt;" style="verticalAlign=top;align=left;overflow=fill;fontSize=14;fontFamily=Helvetica;html=1;rounded=0;shadow=0;comic=0;labelBackgroundColor=none;strokeWidth=1;">
      <mxGeometry x="797" y="2485" width="395" height="1720" as="geometry" />
    </mxCell>
    <mxCell id="node4" parent="1" vertex="1" value="&lt;p style=&quot;margin:0px;margin-top:4px;text-align:center;&quot;&gt;&lt;b&gt;Members&lt;/b&gt;&lt;/p&gt;&lt;hr size=&quot;1&quot;/&gt;&lt;p style=&quot;margin:0 0 0 4px;line-height:1.6;&quot;&gt;- openId: int&lt;br/&gt;- breaststrokeList: ArrayList&amp;lt;Member&amp;gt;&lt;br/&gt;- members: ArrayList&amp;lt;Member&amp;gt;&lt;br/&gt;- butterflyList: ArrayList&amp;lt;Member&amp;gt;&lt;br/&gt;- crawlList: ArrayList&amp;lt;Member&amp;gt;&lt;br/&gt;- backstrokeList: ArrayList&amp;lt;Member&amp;gt;&lt;/p&gt;&lt;hr size=&quot;1&quot;/&gt;&lt;p style=&quot;margin:0 0 0 4px;line-height:1.6;&quot;&gt;+ sumMembershipFees(): String&lt;br/&gt;+ memberLookUp(String): ArrayList&amp;lt;Member&amp;gt;&lt;br/&gt;+ memberPaidList(boolean): ArrayList&amp;lt;Member&amp;gt;&lt;br/&gt;+ balancePaid(Member): String&lt;br/&gt;+ getUnpaid(): ArrayList&amp;lt;Member&amp;gt;&lt;br/&gt;+ compactMembers(): String&lt;br/&gt;+ addMember(String, int, int, String, boolean, boolean, boolean): Member&lt;br/&gt;+ disciplinesList(Member): String&lt;br/&gt;+ memberList(): String&lt;br/&gt;+ topDisciplinesList(String, String): String&lt;br/&gt;+ generateID(): int&lt;br/&gt;+ removeMember(Member): void&lt;br/&gt;+ setMembershipBalanceFee(int, String, boolean, int, double): void&lt;br/&gt;+ editMember(Member, String, String): String&lt;br/&gt;+ getMembers(): ArrayList&amp;lt;Member&amp;gt;&lt;br/&gt;+ memberListShort(): String&lt;br/&gt;+ addMemberByObject(Member): void&lt;br/&gt;+ depositMemberBalance(String, double): String&lt;br/&gt;+ addMemberToDiscipline(Member, String): String&lt;br/&gt;+ sortedMemberList(String, String): String&lt;br/&gt;+ memberListShortRecord(): String&lt;br/&gt;+ sortBy(String, String): void&lt;br/&gt;+ setOpenID(int): void&lt;/p&gt;" style="verticalAlign=top;align=left;overflow=fill;fontSize=14;fontFamily=Helvetica;html=1;rounded=0;shadow=0;comic=0;labelBackgroundColor=none;strokeWidth=1;">
      <mxGeometry x="760" y="1709" width="468" height="736" as="geometry" />
    </mxCell>
    <mxCell id="node2" parent="1" vertex="1" value="&lt;p style=&quot;margin:0px;margin-top:4px;text-align:center;&quot;&gt;&lt;b&gt;Tournament&lt;/b&gt;&lt;/p&gt;&lt;hr size=&quot;1&quot;/&gt;&lt;p style=&quot;margin:0 0 0 4px;line-height:1.6;&quot;&gt;- place: String&lt;br/&gt;- id: int&lt;br/&gt;- name: String&lt;br/&gt;- date: String&lt;br/&gt;- category: String&lt;br/&gt;- competitors: ArrayList&amp;lt;Competitor&amp;gt;&lt;/p&gt;&lt;hr size=&quot;1&quot;/&gt;&lt;p style=&quot;margin:0 0 0 4px;line-height:1.6;&quot;&gt;+ competitorsToString(): String&lt;br/&gt;+ getShortDescription(): String&lt;br/&gt;+ getLongDescription(): String&lt;br/&gt;+ getStandings(): ArrayList&amp;lt;Competitor&amp;gt;&lt;br/&gt;+ getName(): String&lt;br/&gt;+ getDate(): String&lt;br/&gt;+ getCompetitors(): ArrayList&amp;lt;Competitor&amp;gt;&lt;br/&gt;+ getCompact(): String&lt;br/&gt;+ getID(): int&lt;/p&gt;" style="verticalAlign=top;align=left;overflow=fill;fontSize=14;fontFamily=Helvetica;html=1;rounded=0;shadow=0;comic=0;labelBackgroundColor=none;strokeWidth=1;">
      <mxGeometry x="394" y="2001" width="302" height="400" as="geometry" />
    </mxCell>
    <mxCell id="node9" parent="1" vertex="1" value="&lt;p style=&quot;margin:0px;margin-top:4px;text-align:center;&quot;&gt;&lt;b&gt;Tournaments&lt;/b&gt;&lt;/p&gt;&lt;hr size=&quot;1&quot;/&gt;&lt;p style=&quot;margin:0 0 0 4px;line-height:1.6;&quot;&gt;- tournamentList: ArrayList&amp;lt;Tournament&amp;gt;&lt;br/&gt;- openID: int&lt;/p&gt;&lt;hr size=&quot;1&quot;/&gt;&lt;p style=&quot;margin:0 0 0 4px;line-height:1.6;&quot;&gt;+ setOpenID(int): void&lt;br/&gt;+ createCompetitor(Member, double, String, String): Competitor&lt;br/&gt;+ listOfShortDescriptions(): String&lt;br/&gt;+ createTournament(String, String, String, String, ArrayList&amp;lt;Competitor&amp;gt;): void&lt;br/&gt;+ nextID(): int&lt;br/&gt;+ tourneyLookUp(String): ArrayList&amp;lt;Tournament&amp;gt;&lt;br/&gt;+ compactTourneys(): String&lt;br/&gt;+ addTournamentByObject(Tournament): void&lt;br/&gt;+ listToShortDescriptions(ArrayList&amp;lt;Tournament&amp;gt;): String&lt;/p&gt;" style="verticalAlign=top;align=left;overflow=fill;fontSize=14;fontFamily=Helvetica;html=1;rounded=0;shadow=0;comic=0;labelBackgroundColor=none;strokeWidth=1;">
      <mxGeometry x="-91" y="1709" width="441" height="304" as="geometry" />
    </mxCell>
    <mxCell id="node1" parent="1" vertex="1" value="&lt;p style=&quot;margin:0px;margin-top:4px;text-align:center;&quot;&gt;&lt;b&gt;UserInterface&lt;/b&gt;&lt;/p&gt;&lt;hr size=&quot;1&quot;/&gt;&lt;p style=&quot;margin:0 0 0 4px;line-height:1.6;&quot;&gt;- controller: Controller&lt;/p&gt;&lt;hr size=&quot;1&quot;/&gt;&lt;p style=&quot;margin:0 0 0 4px;line-height:1.6;&quot;&gt;+ listMembers(): void&lt;br/&gt;+ memberListShortInfo(): void&lt;br/&gt;+ wantToAddToMoreDisciplines(): boolean&lt;br/&gt;+ reqInt(String, Scanner): int&lt;br/&gt;+ addMemberByUser(): void&lt;br/&gt;+ memberManagement(): void&lt;br/&gt;- wipeMembers(): void&lt;br/&gt;+ editMember(String): void&lt;br/&gt;- createTournament(): void&lt;br/&gt;+ searchForTourney(String): void&lt;br/&gt;+ runBalancePayment(String): void&lt;br/&gt;+ reqString(String, Scanner): String&lt;br/&gt;- searchSpecificTourney(String, Scanner): Tournament?&lt;br/&gt;+ topDisciplinesList(): void&lt;br/&gt;+ tourneyManagement(): void&lt;br/&gt;+ listMemberDisciplines(): void&lt;br/&gt;+ depositMemberBalance(): void&lt;br/&gt;+ addMemberToDiscipline(Member): void&lt;br/&gt;+ removeMemberByUser(String): void&lt;br/&gt;+ recordTime(): void&lt;br/&gt;+ reqBool(String, Scanner): Boolean&lt;br/&gt;+ editMemberSplit(Member): void&lt;br/&gt;- wipeTourneys(): void&lt;br/&gt;+ reqDouble(String, Scanner): double&lt;br/&gt;+ sortMembers(): void&lt;br/&gt;- searchSpecificMember(String, Scanner): Member?&lt;br/&gt;+ userInterface(): void&lt;br/&gt;+ searchForMember(String): void&lt;br/&gt;- workInProgress(): void&lt;br/&gt;- listTourneys(): void&lt;br/&gt;+ frontPage(): void&lt;/p&gt;" style="verticalAlign=top;align=left;overflow=fill;fontSize=14;fontFamily=Helvetica;html=1;rounded=0;shadow=0;comic=0;labelBackgroundColor=none;strokeWidth=1;">
      <mxGeometry x="509" y="89" width="382" height="808" as="geometry" />
    </mxCell>
    <mxCell id="edge7" edge="1" value="" parent="1" source="node5" target="node8" style="html=1;rounded=1;edgeStyle=orthogonalEdgeStyle;dashed=1;startArrow=none;endArrow=openThin;endSize=12;strokeColor=#595959;exitX=0.739;exitY=1.000;exitDx=0;exitDy=0;entryX=0.485;entryY=0.000;entryDx=0;entryDy=0;">
      <mxGeometry width="50" height="50" relative="1" as="geometry">
        <Array as="points">
          <mxPoint x="810" y="1684" />
          <mxPoint x="550" y="1684" />
        </Array>
      </mxGeometry>
    </mxCell>
    <mxCell id="edge8" edge="1" value="" parent="1" source="node5" target="node8" style="html=1;rounded=1;edgeStyle=orthogonalEdgeStyle;dashed=0;startArrow=diamondThinstartSize=12;endArrow=openThin;endSize=12;strokeColor=#595959;exitX=0.761;exitY=1.000;exitDx=0;exitDy=0;entryX=0.515;entryY=0.000;entryDx=0;entryDy=0;">
      <mxGeometry width="50" height="50" relative="1" as="geometry">
        <Array as="points">
          <mxPoint x="820" y="1694" />
          <mxPoint x="560" y="1694" />
        </Array>
      </mxGeometry>
    </mxCell>
    <mxCell id="edge2" edge="1" value="" parent="1" source="node5" target="node7" style="html=1;rounded=1;edgeStyle=orthogonalEdgeStyle;dashed=1;startArrow=none;endArrow=openThin;endSize=12;strokeColor=#595959;exitX=0.739;exitY=1.000;exitDx=0;exitDy=0;entryX=0.477;entryY=0.000;entryDx=0;entryDy=0;">
      <mxGeometry width="50" height="50" relative="1" as="geometry">
        <Array as="points">
          <mxPoint x="810" y="1674" />
          <mxPoint x="1374" y="1674" />
        </Array>
      </mxGeometry>
    </mxCell>
    <mxCell id="edge12" edge="1" value="" parent="1" source="node5" target="node7" style="html=1;rounded=1;edgeStyle=orthogonalEdgeStyle;dashed=0;startArrow=diamondThinstartSize=12;endArrow=openThin;endSize=12;strokeColor=#595959;exitX=0.761;exitY=1.000;exitDx=0;exitDy=0;entryX=0.523;entryY=0.000;entryDx=0;entryDy=0;">
      <mxGeometry width="50" height="50" relative="1" as="geometry">
        <Array as="points">
          <mxPoint x="820" y="1664" />
          <mxPoint x="1384" y="1664" />
        </Array>
      </mxGeometry>
    </mxCell>
    <mxCell id="edge1" edge="1" value="" parent="1" source="node5" target="node4" style="html=1;rounded=1;edgeStyle=orthogonalEdgeStyle;dashed=0;startArrow=diamondThinstartSize=12;endArrow=openThin;endSize=12;strokeColor=#595959;exitX=0.239;exitY=1.000;exitDx=0;exitDy=0;entryX=0.489;entryY=0.000;entryDx=0;entryDy=0;">
      <mxGeometry width="50" height="50" relative="1" as="geometry">
        <Array as="points">
          <mxPoint x="579" y="1694" />
          <mxPoint x="989" y="1694" />
        </Array>
      </mxGeometry>
    </mxCell>
    <mxCell id="edge14" edge="1" value="" parent="1" source="node5" target="node4" style="html=1;rounded=1;edgeStyle=orthogonalEdgeStyle;dashed=1;startArrow=none;endArrow=openThin;endSize=12;strokeColor=#595959;exitX=0.261;exitY=1.000;exitDx=0;exitDy=0;entryX=0.511;entryY=0.000;entryDx=0;entryDy=0;">
      <mxGeometry width="50" height="50" relative="1" as="geometry">
        <Array as="points">
          <mxPoint x="589" y="1684" />
          <mxPoint x="999" y="1684" />
        </Array>
      </mxGeometry>
    </mxCell>
    <mxCell id="edge4" edge="1" value="" parent="1" source="node5" target="node9" style="html=1;rounded=1;edgeStyle=orthogonalEdgeStyle;dashed=0;startArrow=diamondThinstartSize=12;endArrow=openThin;endSize=12;strokeColor=#595959;exitX=0.239;exitY=1.000;exitDx=0;exitDy=0;entryX=0.489;entryY=0.000;entryDx=0;entryDy=0;">
      <mxGeometry width="50" height="50" relative="1" as="geometry">
        <Array as="points">
          <mxPoint x="579" y="1664" />
          <mxPoint x="125" y="1664" />
        </Array>
      </mxGeometry>
    </mxCell>
    <mxCell id="edge18" edge="1" value="" parent="1" source="node5" target="node9" style="html=1;rounded=1;edgeStyle=orthogonalEdgeStyle;dashed=1;startArrow=none;endArrow=openThin;endSize=12;strokeColor=#595959;exitX=0.261;exitY=1.000;exitDx=0;exitDy=0;entryX=0.511;entryY=0.000;entryDx=0;entryDy=0;">
      <mxGeometry width="50" height="50" relative="1" as="geometry">
        <Array as="points">
          <mxPoint x="589" y="1674" />
          <mxPoint x="135" y="1674" />
        </Array>
      </mxGeometry>
    </mxCell>
    <mxCell id="edge10" edge="1" value="" parent="1" source="node8" target="node3" style="html=1;rounded=1;edgeStyle=orthogonalEdgeStyle;dashed=1;startArrow=none;endArrow=openThin;endSize=12;strokeColor=#595959;exitX=0.750;exitY=1.000;exitDx=0;exitDy=0;entryX=0.833;entryY=0.000;entryDx=0;entryDy=0;">
      <mxGeometry width="50" height="50" relative="1" as="geometry">
        <Array as="points">
          <mxPoint x="638" y="1961" />
          <mxPoint x="716" y="1961" />
          <mxPoint x="716" y="2441" />
          <mxPoint x="429" y="2441" />
        </Array>
      </mxGeometry>
    </mxCell>
    <mxCell id="edge13" edge="1" value="" parent="1" source="node8" target="node6" style="html=1;rounded=1;edgeStyle=orthogonalEdgeStyle;dashed=1;startArrow=none;endArrow=openThin;endSize=12;strokeColor=#595959;exitX=0.750;exitY=1.000;exitDx=0;exitDy=0;entryX=0.500;entryY=0.000;entryDx=0;entryDy=0;">
      <mxGeometry width="50" height="50" relative="1" as="geometry">
        <Array as="points">
          <mxPoint x="638" y="1961" />
          <mxPoint x="716" y="1961" />
          <mxPoint x="716" y="2465" />
          <mxPoint x="994" y="2465" />
        </Array>
      </mxGeometry>
    </mxCell>
    <mxCell id="edge11" edge="1" value="" parent="1" source="node8" target="node2" style="html=1;rounded=1;edgeStyle=orthogonalEdgeStyle;dashed=1;startArrow=none;endArrow=openThin;endSize=12;strokeColor=#595959;exitX=0.250;exitY=1.000;exitDx=0;exitDy=0;entryX=0.500;entryY=0.000;entryDx=0;entryDy=0;">
      <mxGeometry width="50" height="50" relative="1" as="geometry">
        <Array as="points">
          <mxPoint x="473" y="1981" />
          <mxPoint x="545" y="1981" />
        </Array>
      </mxGeometry>
    </mxCell>
    <mxCell id="edge6" edge="1" value="" parent="1" source="node0" target="node1" style="html=1;rounded=1;edgeStyle=orthogonalEdgeStyle;dashed=1;startArrow=none;endArrow=openThin;endSize=12;strokeColor=#595959;exitX=0.500;exitY=1.001;exitDx=0;exitDy=0;entryX=0.500;entryY=0.000;entryDx=0;entryDy=0;">
      <mxGeometry width="50" height="50" relative="1" as="geometry">
        <Array as="points" />
      </mxGeometry>
    </mxCell>
    <mxCell id="edge15" edge="1" value="" parent="1" source="node4" target="node6" style="html=1;rounded=1;edgeStyle=orthogonalEdgeStyle;dashed=0;startArrow=diamondThinstartSize=12;endArrow=openThin;endSize=12;strokeColor=#595959;exitX=0.489;exitY=1.000;exitDx=0;exitDy=0;entryX=0.487;entryY=0.000;entryDx=0;entryDy=0;">
      <mxGeometry width="50" height="50" relative="1" as="geometry">
        <Array as="points" />
      </mxGeometry>
    </mxCell>
    <mxCell id="edge17" edge="1" value="" parent="1" source="node4" target="node6" style="html=1;rounded=1;edgeStyle=orthogonalEdgeStyle;dashed=1;startArrow=none;endArrow=openThin;endSize=12;strokeColor=#595959;exitX=0.511;exitY=1.000;exitDx=0;exitDy=0;entryX=0.513;entryY=0.000;entryDx=0;entryDy=0;">
      <mxGeometry width="50" height="50" relative="1" as="geometry">
        <Array as="points" />
      </mxGeometry>
    </mxCell>
    <mxCell id="edge19" edge="1" value="" parent="1" source="node2" target="node3" style="html=1;rounded=1;edgeStyle=orthogonalEdgeStyle;dashed=0;startArrow=diamondThinstartSize=12;endArrow=openThin;endSize=12;strokeColor=#595959;exitX=0.500;exitY=1.000;exitDx=0;exitDy=0;entryX=0.500;entryY=0.000;entryDx=0;entryDy=0;">
      <mxGeometry width="50" height="50" relative="1" as="geometry">
        <Array as="points">
          <mxPoint x="545" y="2421" />
          <mxPoint x="315" y="2421" />
        </Array>
      </mxGeometry>
    </mxCell>
    <mxCell id="edge9" edge="1" value="" parent="1" source="node9" target="node3" style="html=1;rounded=1;edgeStyle=orthogonalEdgeStyle;dashed=1;startArrow=none;endArrow=openThin;endSize=12;strokeColor=#595959;exitX=0.500;exitY=1.000;exitDx=0;exitDy=0;entryX=0.167;entryY=0.000;entryDx=0;entryDy=0;">
      <mxGeometry width="50" height="50" relative="1" as="geometry">
        <Array as="points">
          <mxPoint x="130" y="2441" />
          <mxPoint x="200" y="2441" />
        </Array>
      </mxGeometry>
    </mxCell>
    <mxCell id="edge0" edge="1" value="" parent="1" source="node9" target="node2" style="html=1;rounded=1;edgeStyle=orthogonalEdgeStyle;dashed=0;startArrow=diamondThinstartSize=12;endArrow=openThin;endSize=12;strokeColor=#595959;exitX=0.511;exitY=0.000;exitDx=0;exitDy=0;entryX=0.483;entryY=0.000;entryDx=0;entryDy=0;">
      <mxGeometry width="50" height="50" relative="1" as="geometry">
        <Array as="points">
          <mxPoint x="135" y="1672" />
          <mxPoint x="132" y="1674" />
          <mxPoint x="365" y="1674" />
          <mxPoint x="365" y="1993" />
          <mxPoint x="540" y="1993" />
        </Array>
      </mxGeometry>
    </mxCell>
    <mxCell id="edge5" edge="1" value="" parent="1" source="node9" target="node2" style="html=1;rounded=1;edgeStyle=orthogonalEdgeStyle;dashed=1;startArrow=none;endArrow=openThin;endSize=12;strokeColor=#595959;exitX=0.489;exitY=0.000;exitDx=0;exitDy=0;entryX=0.517;entryY=0.000;entryDx=0;entryDy=0;">
      <mxGeometry width="50" height="50" relative="1" as="geometry">
        <Array as="points">
          <mxPoint x="125" y="1666" />
          <mxPoint x="128" y="1664" />
          <mxPoint x="375" y="1664" />
          <mxPoint x="375" y="1983" />
          <mxPoint x="550" y="1983" />
        </Array>
      </mxGeometry>
    </mxCell>
    <mxCell id="edge3" edge="1" value="" parent="1" source="node1" target="node5" style="html=1;rounded=1;edgeStyle=orthogonalEdgeStyle;dashed=0;startArrow=diamondThinstartSize=12;endArrow=openThin;endSize=12;strokeColor=#595959;exitX=0.487;exitY=1.000;exitDx=0;exitDy=0;entryX=0.489;entryY=0.000;entryDx=0;entryDy=0;">
      <mxGeometry width="50" height="50" relative="1" as="geometry">
        <Array as="points" />
      </mxGeometry>
    </mxCell>
    <mxCell id="edge16" edge="1" value="" parent="1" source="node1" target="node5" style="html=1;rounded=1;edgeStyle=orthogonalEdgeStyle;dashed=1;startArrow=none;endArrow=openThin;endSize=12;strokeColor=#595959;exitX=0.513;exitY=1.000;exitDx=0;exitDy=0;entryX=0.511;entryY=0.000;entryDx=0;entryDy=0;">
      <mxGeometry width="50" height="50" relative="1" as="geometry">
        <Array as="points" />
      </mxGeometry>
    </mxCell>
  </root>
</mxGraphModel>